<svg id="edf6V51ZPAM1" xmlns="http://www.w3.org/2000/svg" xmlns:xlink="http://www.w3.org/1999/xlink" viewBox="0 0 1491 898" shape-rendering="geometricPrecision" text-rendering="geometricPrecision"><g clip-path="url(#edf6V51ZPAM12)"><g><path d="M1491,0L-2.07373,0v1080L1491,1080v-1080Z" fill="#f8fafc"/><g clip-path="url(#edf6V51ZPAM9)"><g><path d="M1491,0L-2.07373,0v1080L1491,1080v-1080Z" fill="#f8fafc"/><path d="M57.4995,918.425c135.3215-2.57,283.0825-13.402,383.9485-100.523c97.585-84.285,82.086-232.315,135.181-347.862c52.293-113.8,172.885-200.578,174.042-325.066c1.2-129.1227-76.735-248.665-167.833-343.22-89.253-92.64-211.73-142.619-336.765-180.528-127.025-38.514-263.6695-82.452-389.185-39.578-123.733,42.266-193.63,162.706-270.968,265.074-71.397,94.5024-148.63,190.3083-160.979,306.664-12.131,114.28,55.666,216.473,93.907,325.26c43.109,122.636,42.439,270.394,144.872,354.024c104.863,85.615,256.4659,88.361,393.7795,85.755Z" fill="#2563eb"/></g><clipPath id="edf6V51ZPAM9"><rect width="1491" height="898" rx="0" ry="0" fill="#fff"/></clipPath></g><path d="M57.4995,918.425c135.3215-2.57,283.0825-13.402,383.9485-100.523c97.585-84.285,82.086-232.315,135.181-347.862c52.293-113.8,172.885-200.578,174.042-325.066c1.2-129.1227-76.735-248.665-167.833-343.22-89.253-92.64-211.73-142.619-336.765-180.528-127.025-38.514-263.6695-82.452-389.185-39.578-123.733,42.266-193.63,162.706-270.968,265.074-71.397,94.5024-148.63,190.3083-160.979,306.664-12.131,114.28,55.666,216.473,93.907,325.26c43.109,122.636,42.439,270.394,144.872,354.024c104.863,85.615,256.4659,88.361,393.7795,85.755Z" transform="matrix(.741169 0 0 0.585837 1172.777324 419.050976)" fill="#2563eb"/></g><clipPath id="edf6V51ZPAM12"><rect width="1491" height="898" rx="0" ry="0" fill="#fff"/></clipPath></g></svg>
