<svg id="eA1TQwXIfzV1" xmlns="http://www.w3.org/2000/svg" xmlns:xlink="http://www.w3.org/1999/xlink" viewBox="0 0 1491 898" shape-rendering="geometricPrecision" text-rendering="geometricPrecision"><defs><filter id="eA1TQwXIfzV2-filter" x="-150%" width="400%" y="-150%" height="400%"><feColorMatrix id="eA1TQwXIfzV2-filter-grayscale-0" type="matrix" values="1 0 0 0 0 0 1 0 0 0 0 0 1 0 0 0 0 0 1 0" result="result"/><feColorMatrix id="eA1TQwXIfzV2-filter-hue-rotate-0" type="hueRotate" values="228" result="result"/><feComponentTransfer id="eA1TQwXIfzV2-filter-invert-0" result="result"><feFuncR id="eA1TQwXIfzV2-filter-invert-0-R" type="table" tableValues="0.29 0.71"/><feFuncG id="eA1TQwXIfzV2-filter-invert-0-G" type="table" tableValues="0.29 0.71"/><feFuncB id="eA1TQwXIfzV2-filter-invert-0-B" type="table" tableValues="0.29 0.71"/></feComponentTransfer><feColorMatrix id="eA1TQwXIfzV2-filter-saturate-0" type="saturate" values="2" result="result"/></filter></defs><g clip-path="url(#eA1TQwXIfzV12)" filter="url(#eA1TQwXIfzV2-filter)"><g><path d="M1491,0L-2.07373,0v1080L1491,1080v-1080Z" fill="#f8fafc"/><g clip-path="url(#eA1TQwXIfzV9)"><g><path d="M1491,0L-2.07373,0v1080L1491,1080v-1080Z" fill="#f8fafc"/><path d="M57.4995,918.425c135.3215-2.57,283.0825-13.402,383.9485-100.523c97.585-84.285,82.086-232.315,135.181-347.862c52.293-113.8,172.885-200.578,174.042-325.066c1.2-129.1227-76.735-248.665-167.833-343.22-89.253-92.64-211.73-142.619-336.765-180.528-127.025-38.514-263.6695-82.452-389.185-39.578-123.733,42.266-193.63,162.706-270.968,265.074-71.397,94.5024-148.63,190.3083-160.979,306.664-12.131,114.28,55.666,216.473,93.907,325.26c43.109,122.636,42.439,270.394,144.872,354.024c104.863,85.615,256.4659,88.361,393.7795,85.755Z" fill="#2563eb"/></g><clipPath id="eA1TQwXIfzV9"><rect width="1491" height="898" rx="0" ry="0" fill="#fff"/></clipPath></g><path d="M57.4995,918.425c135.3215-2.57,283.0825-13.402,383.9485-100.523c97.585-84.285,82.086-232.315,135.181-347.862c52.293-113.8,172.885-200.578,174.042-325.066c1.2-129.1227-76.735-248.665-167.833-343.22-89.253-92.64-211.73-142.619-336.765-180.528-127.025-38.514-263.6695-82.452-389.185-39.578-123.733,42.266-193.63,162.706-270.968,265.074-71.397,94.5024-148.63,190.3083-160.979,306.664-12.131,114.28,55.666,216.473,93.907,325.26c43.109,122.636,42.439,270.394,144.872,354.024c104.863,85.615,256.4659,88.361,393.7795,85.755Z" transform="matrix(.741169 0 0 0.585837 1172.777324 419.050976)" fill="#2563eb"/></g><clipPath id="eA1TQwXIfzV12"><rect width="1491" height="898" rx="0" ry="0" fill="#fff"/></clipPath></g></svg>
